<svg width="85" height="102" viewBox="0 0 85 102" xmlns="http://www.w3.org/2000/svg" aria-hidden="true"><g fill="#fff" fill-rule="nonzero"><path d="M12.9 46.8c1.4-1.6 2.6-3.4 3.7-5.3 1-1.9 1.8-3.6 2.4-4.9.1-.2.1-.4 0-.7-.1-.2-.2-.4-.4-.5-.2-.1-.3-.2-.5-.1s-.3.2-.4.4c-.5 1.1-1.2 2.6-2 4.3-.9 1.7-1.9 3.4-3.1 4.8-1.2 1.5-2.5 2.7-4 3.5-1.4.8-3 1-4.7.4-1.3-.5-2-1.6-2.2-3.3-.2-1.7-.1-3.7.3-6.1.5-2.4 1.2-5.1 2.2-7.9 1-2.9 2.2-5.8 3.5-8.6 1.3-2.9 2.6-5.6 4-8.2 1.4-2.6 2.7-4.8 3.9-6.7 1.2-1.8 2.3-3.2 3.2-4 .9-.8 1.5-.9 1.8-.3.3.4.3 1.4 0 2.8s-.7 2.9-1.2 4.5-1.1 3.1-1.7 4.4c-.6 1.4-1.1 2.3-1.5 2.8-.2.2-.2.5-.2.7 0 .2.1.4.2.5.1.1.3.2.5.2s.4 0 .6-.2c.4-.4.8-1.1 1.3-2.1.5-.9.9-2 1.3-3.2.4-1.2.8-2.5 1.2-3.8.4-1.3.7-2.6.9-3.8.2-1.2.3-2.2.2-3.1-.1-.9-.3-1.6-.7-2-.6-.6-1.5-.4-2.6.5-1.2.9-2.5 2.4-3.9 4.3s-2.9 4.3-4.4 7c-1.5 2.7-3 5.6-4.4 8.6-1.4 3-2.6 6-3.6 9.1-1.1 3-1.8 5.9-2.2 8.5C0 41.9-.1 44.2.2 46c.3 1.9 1.1 3.2 2.5 3.9 2 1 3.8 1.2 5.5.4 1.7-.8 3.3-1.9 4.7-3.5zM21 32.8c-.2 2.1-.1 3.9.1 5.2.2 1.3.8 2 1.7 1.9.9-.1 1.8-.4 2.8-1.1 1-.7 1.9-1.4 2.7-2.3.4-.4.7-.8 1.1-1.3.1.5.2 1 .4 1.5.4.8.9 1.4 1.8 1.8.8.4 1.9.5 3.2.2 1.1-.2 2.1-.6 3-1.3.8-.6 1.5-1.4 2.1-2.2.5-.8.9-1.7 1.2-2.7.2-.9.3-1.8.3-2.6.4.2.7.4 1.1.6.4.2.7.3 1.2.4.4.1 1 .1 1.6.1.5 0 1-.1 1.7-.2v.2c-.2 1.2-.3 2.4-.2 3.3.1 1 .3 1.8.8 2.4.4.6 1.2.9 2.2.8.5-.1 1-.3 1.6-.8.6-.5 1.2-1 1.9-1.7s1.4-1.4 2.1-2.2c.7-.8 1.4-1.6 2-2.4-.2.8-.4 1.6-.6 2.5-.2.8-.2 1.6-.2 2.3 0 .7.2 1.3.4 1.8s.6.8 1.2.9c.8.2 1.5 0 2.2-.5.7-.5 1.4-1.1 2-1.9.6-.8 1.2-1.5 1.7-2.3.5-.8 1-1.4 1.4-1.9.4-.4.4-.8 0-1.2-.4-.4-.8-.4-1.1 0-.2.2-.5.6-1 1.4-.5.8-1.1 1.6-1.7 2.4-.6.8-1.2 1.5-1.8 2-.6.6-1 .7-1.2.4-.3-.2-.4-.8-.2-1.7.1-.9.3-1.9.5-3s.5-2.1.8-3.1c.3-1 .5-1.7.7-2.2l.1-.1c.2-.2.2-.4.1-.7-.1-.4-.3-.6-.7-.7-.4-.1-.7.1-.9.6-.4.5-1.1 1.4-1.9 2.5-.8 1.1-1.7 2.2-2.6 3.3-.9 1.1-1.8 2.1-2.7 3-.9.9-1.6 1.3-2.1 1.4-.5.1-.9-.2-1-.7-.1-.5-.2-1.2-.1-2s.3-1.8.5-2.9c.3-1.1.6-2.1.9-3 .3-.9.6-1.8.9-2.6.3-.8.5-1.3.6-1.5.1-.2.1-.4 0-.7-.1-.2-.3-.4-.4-.5-.2-.1-.4-.1-.7-.1-.2.1-.4.2-.5.4-.2.4-.5 1.1-.9 2-.4.9-.7 2-1.1 3.1-.2.6-.3 1.1-.5 1.7h-.1c-1.1.3-2.1.3-3 .2-.9-.1-2-.6-3.3-1.3-.5-1.2-1.5-1.9-2.8-2-.2-.1-.4 0-.7.3-.3.2-.4.5-.5.9-.1.4.1.6.4.9.3.3.9.5 1.8.5l.6 1.5c.1.8-.1 1.5-.4 2.3-.3.8-.8 1.5-1.3 2.2-.5.7-1.2 1.3-1.9 1.8s-1.5.7-2.2.9c-1.1.2-1.8-.2-2.2-1-.4-.8-.5-1.8-.2-3 .2-1.2.7-2.4 1.5-3.7.8-1.3 1.8-2.3 3.1-3.1.4-.3.5-.6.2-1.1-.3-.5-.6-.6-1.1-.4-1.2.6-2.2 1.4-3.1 2.4-.9 1-1.5 2-2 3.1-.2.4-.3.9-.4 1.3-.1.2-.2.4-.4.6-.6.8-1.2 1.7-1.9 2.5s-1.4 1.6-2.2 2.2c-.8.6-1.4.9-2 .9-.3 0-.5-.3-.6-1-.1-.7-.1-1.6 0-2.8.1-1.2.3-2.6.6-4.1.3-1.5.6-3.1 1-4.9 1.2-1.5 2.3-3.2 3.3-5.1 1-1.8 1.9-3.7 2.6-5.5.7-1.8 1.2-3.5 1.5-5.1.4-1.6.4-2.9.3-3.9-.1-.8-.3-1.3-.5-1.5-.2-.3-.5-.4-.8-.4-.3 0-.6.2-.9.5-.3.3-.6.7-.9 1.1-.8 1.3-1.7 3-2.5 5.1-.9 2.2-1.7 4.5-2.4 7.1-.8 2.6-1.4 5.2-2 7.9-.6 3.1-.9 5.5-1.1 7.7zm5.7-16.7c.5-1.7.9-3.2 1.4-4.6.5-1.4.9-2.6 1.3-3.6s.8-1.8 1.2-2.2c.1.7.1 1.6-.1 2.7-.2 1.2-.5 2.5-1 3.9s-1.1 2.9-1.8 4.4c-.7 1.5-1.5 3-2.4 4.4.5-1.7 1-3.4 1.4-5zM37.1 68.2c1.5-1.6 2.8-3.4 4-5.2 1.6-2.4 2.6-4.7 2.9-6.8.3-2.1 0-3.9-.8-5.3s-2.1-2.3-3.9-2.9c-1.8-.5-4-.4-6.5.4-1.9.6-3.8 1.6-5.6 3-1.8 1.4-3.5 3-5.1 4.9-1.6 1.9-3 4-4.4 6.2-1.3 2.2-2.5 4.4-3.4 6.6-.9 2.2-1.6 4.3-2.1 6.4-.5 2.1-.6 3.9-.4 5.4 0 .3.1.5.3.6.2.1.4.2.6.2.2 0 .4-.1.5-.2.2-.1.2-.3.2-.6-.1-1.4.1-3 .5-4.9.4-1.9 1.1-4 2-6.1.9-2.1 1.9-4.2 3.2-6.4 1.2-2.1 2.6-4.1 4.1-5.9 1.5-1.8 3.1-3.4 4.8-4.7 1.7-1.3 3.4-2.3 5.1-2.8 2.3-.7 4.2-.8 5.7-.4 1.5.5 2.5 1.3 3.1 2.6.6 1.2.7 2.8.2 4.6-.4 1.8-1.3 3.8-2.6 5.8-1.8 2.7-3.8 5.1-6.1 7.3s-4.6 4.3-7.1 6.3c.6-2 1.2-3.9 2-5.8.7-1.9 1.3-3.7 1.9-5.4.5-1.7 1-3.3 1.2-4.6.2-1.3.3-2.5.1-3.4-.2-.5-.5-.7-1-.5-.5.1-.7.5-.6 1 .2.7.1 1.8-.2 3.2-.4 1.4-.8 3.1-1.4 5-.6 1.9-1.3 3.9-2 6-.8 2.1-1.4 4.2-2 6.3-1.3 1-2.6 2.1-4 3.1-1.3 1-2.6 2-4 3.1-.2.2-.3.3-.3.5s.1.4.2.5c.1.2.3.3.5.3s.4 0 .7-.2l3-2.4c1-.8 2.1-1.6 3.1-2.4-.7 2.6-1 4.8-1 6.8 0 .3.1.5.3.6.2.1.4.2.6.2.2 0 .4-.1.5-.2.2-.1.2-.3.2-.6 0-1.2.1-2.6.4-4 .2-1.4.6-2.9 1-4.4.9-.8 1.7-1.5 2.6-2.2.9-.7 1.7-1.4 2.5-2.1h.2c3.1-.1 5.3.3 6.5 1.2 1.2.8 1.7 2 1.5 3.4-.2 1.4-.9 3-2.2 4.8-1.3 1.8-2.8 3.5-4.7 5.3-1.8 1.7-3.8 3.4-6 4.9-2.1 1.5-4.2 2.7-6.1 3.7-1.9.9-3.6 1.5-5 1.6-1.4.1-2.3-.3-2.6-1.3-.1-.2-.3-.4-.4-.4-.2-.1-.4-.1-.6 0-.2.1-.4.2-.5.3-.1.2-.1.4 0 .7.5 1.5 1.6 2.3 3.2 2.4 1.6.1 3.5-.3 5.6-1.1 2.1-.9 4.4-2.1 6.8-3.7 2.4-1.6 4.6-3.4 6.6-5.4 2-2 3.8-4 5.2-6 1.4-2.1 2.3-3.9 2.5-5.6.2-1.7-.3-3.1-1.5-4.2s-3.5-1.7-6.7-1.8c1.7-2 3.3-3.6 4.7-5.3zM63.3 62.8c-.2-.1-.5 0-.7 0-.2.1-.4.2-.4.4-.2.9-.4 1.7-.6 2.6-.2.8-.5 1.7-.8 2.6-.2.5 0 .8.5.9.5.1.9 0 1.1-.5.3-.8.6-1.6.9-2.5.4-.8.6-1.7.9-2.6.1-.3 0-.5-.2-.7-.2-.1-.5-.2-.7-.2zM83.9 78.3c-.2-.1-.4-.1-.6 0-1.1.3-2.1.3-3 .2-.9-.1-2-.6-3.3-1.3-.5-1.2-1.5-1.9-2.8-2-.2-.1-.4 0-.7.3-.3.2-.4.5-.5.9-.1.3.1.6.4.9.3.3.9.5 1.8.5l.6 1.5c.1.8-.1 1.5-.4 2.3-.3.8-.8 1.5-1.3 2.2-.5.7-1.2 1.3-1.9 1.8s-1.5.7-2.2.9c-1.1.2-1.8-.2-2.2-1-.4-.8-.5-1.8-.2-3 .2-1.2.7-2.4 1.5-3.7.8-1.3 1.8-2.3 3.1-3.1.4-.3.5-.6.2-1.1-.3-.5-.6-.6-1.1-.4-1.2.6-2.2 1.4-3.1 2.4-.7.8-1.2 1.6-1.6 2.4 0 0-.1 0-.1.1-.4.3-.9.8-1.6 1.4-.7.6-1.4 1.2-2.2 1.8-.7.6-1.5 1.1-2.2 1.6-.7.5-1.2.8-1.6.9-.6.1-1-.1-1.1-.5-.1-.4-.1-1 0-1.8s.4-1.7.7-2.6c.3-1 .6-1.9 1-2.8.4-.9.7-1.7 1-2.4.3-.7.5-1.2.5-1.4.1-.2.1-.4-.1-.6-.2-.2-.4-.3-.6-.3-.2 0-.5 0-.7.1-.2.1-.4.2-.4.4-.1.3-.3.8-.7 1.7-.4.9-.8 1.9-1.2 3-.2.5-.3 1-.5 1.5h-.1c-1.4.5-2.5.7-3.2.5-.7-.1-1.3-.4-1.6-.9-.4-.5-.6-1.1-.7-1.8-.1-.7-.1-1.4-.2-2 0-.7-.1-1.2-.2-1.7s-.3-.7-.8-.8c-.4 0-.9.6-1.5 1.7-.7 1.1-1.3 2.5-2 4s-1.3 3-1.9 4.4c-.6 1.4-.9 2.5-1.1 3.1.2-2.3.6-4.9 1.2-7.7s1.5-5.2 2.6-7.3c.2-.4.1-.8-.3-1-.4-.2-.7-.1-1 .3-.8 1.3-1.5 2.7-2 4.2-.5 1.6-1 3.2-1.3 4.8-.4 1.7-.6 3.3-.9 5-.2 1.7-.4 3.3-.4 4.7-.1.8.2 1.2.9 1.2.2.1.5-.2.9-.9.4-.6.8-1.4 1.3-2.4s1-2.1 1.5-3.3c.5-1.2 1-2.3 1.4-3.4.4-1.1.8-2.1 1.2-3 .4-.9.6-1.5.8-1.8 0 2.6.7 4.4 2 5.5 1.1.9 2.7 1 4.8.5-.3 1.2-.4 2.3-.4 3.2 0 1 .2 1.7.7 2.2.5.5 1.3.6 2.5.2.8-.2 1.7-.6 2.5-1.2.9-.6 1.7-1.2 2.5-1.9.6-.5 1.1-.9 1.5-1.4 0 .2-.1.5-.1.7-.1 1.1.1 2.1.4 2.9.4.8.9 1.4 1.8 1.8.8.4 1.9.5 3.2.2 1.1-.2 2.1-.6 3-1.3.8-.6 1.5-1.4 2.1-2.2.5-.8.9-1.7 1.2-2.7.2-.9.3-1.8.3-2.6.4.2.7.4 1.1.6.4.2.7.3 1.2.4.4.1 1 .1 1.6.1.6 0 1.4-.1 2.4-.4.2-.1.4-.2.4-.4.1-.2.1-.4.1-.7 0 .1-.1-.1-.3-.2z"/></g></svg>